<svg width="136" height="43" viewBox="0 0 136 43" fill="none" xmlns="http://www.w3.org/2000/svg">
<path d="M1.99512 19.5234H1.39746C0.905273 19.5234 0.550781 19.4297 0.333984 19.2422C0.117188 19.0488 0.00878906 18.7588 0.00878906 18.3721C0.00878906 17.9854 0.117188 17.6982 0.333984 17.5107C0.550781 17.3174 0.905273 17.2207 1.39746 17.2207H1.99512V15.0234C1.99512 14.4551 2.15332 14.0244 2.46973 13.7314C2.79199 13.4326 3.2168 13.2832 3.74414 13.2832C4.26562 13.2832 4.68457 13.4326 5.00098 13.7314C5.32324 14.0244 5.48438 14.4551 5.48438 15.0234V17.2207H6.53906C7.05469 17.2207 7.44434 17.3086 7.70801 17.4844C7.97754 17.6543 8.1123 17.9502 8.1123 18.3721C8.1123 18.7939 7.97754 19.0928 7.70801 19.2686C7.44434 19.4385 7.05469 19.5234 6.53906 19.5234H5.48438V26.6865C5.48438 27.2256 5.78906 27.4951 6.39844 27.4951H6.89941C7.28613 27.4951 7.58496 27.5977 7.7959 27.8027C8.00684 28.0078 8.1123 28.2979 8.1123 28.6729C8.1123 29.1768 7.90137 29.5605 7.47949 29.8242C7.05762 30.0879 6.4248 30.2197 5.58105 30.2197C4.94824 30.2197 4.40332 30.1553 3.94629 30.0264C3.49512 29.8975 3.12305 29.7041 2.83008 29.4463C2.54297 29.1826 2.33203 28.8574 2.19727 28.4707C2.0625 28.084 1.99512 27.6328 1.99512 27.1172V19.5234ZM12.876 28.4971C12.876 28.7432 12.8291 28.9688 12.7354 29.1738C12.6416 29.3789 12.5156 29.5576 12.3574 29.71C12.1992 29.8564 12.0117 29.9707 11.7949 30.0527C11.584 30.1348 11.3555 30.1758 11.1094 30.1758C10.8633 30.1758 10.6318 30.1348 10.415 30.0527C10.2041 29.9707 10.0195 29.8564 9.86133 29.71C9.70312 29.5576 9.57715 29.3789 9.4834 29.1738C9.38965 28.9688 9.34277 28.7432 9.34277 28.4971V18.627C9.34277 18.3809 9.38965 18.1611 9.4834 17.9678C9.57715 17.7686 9.70312 17.6016 9.86133 17.4668C10.0195 17.3262 10.2041 17.2207 10.415 17.1504C10.6318 17.0742 10.8633 17.0361 11.1094 17.0361C11.3555 17.0361 11.584 17.0742 11.7949 17.1504C12.0117 17.2207 12.1992 17.3262 12.3574 17.4668C12.5156 17.6016 12.6416 17.7686 12.7354 17.9678C12.8291 18.1611 12.876 18.3809 12.876 18.627V28.4971ZM9.34277 14.0566C9.34277 13.8105 9.38965 13.582 9.4834 13.3711C9.57715 13.1543 9.70312 12.9668 9.86133 12.8086C10.0195 12.6504 10.2041 12.5244 10.415 12.4307C10.6318 12.3369 10.8633 12.29 11.1094 12.29C11.3555 12.29 11.584 12.3369 11.7949 12.4307C12.0117 12.5244 12.1992 12.6504 12.3574 12.8086C12.5156 12.9668 12.6416 13.1543 12.7354 13.3711C12.8291 13.582 12.876 13.8105 12.876 14.0566C12.876 14.3027 12.8291 14.5342 12.7354 14.751C12.6416 14.9619 12.5156 15.1465 12.3574 15.3047C12.1992 15.4629 12.0117 15.5889 11.7949 15.6826C11.584 15.7764 11.3555 15.8232 11.1094 15.8232C10.8633 15.8232 10.6318 15.7764 10.415 15.6826C10.2041 15.5889 10.0195 15.4629 9.86133 15.3047C9.70312 15.1465 9.57715 14.9619 9.4834 14.751C9.38965 14.5342 9.34277 14.3027 9.34277 14.0566ZM14.7129 23.874C14.7129 22.8486 14.8535 21.9082 15.1348 21.0527C15.4219 20.1973 15.8408 19.4619 16.3916 18.8467C16.9482 18.2314 17.6367 17.7539 18.457 17.4141C19.2832 17.0684 20.2383 16.8955 21.3223 16.8955C22.0605 16.8955 22.7432 16.9922 23.3701 17.1855C23.9971 17.3789 24.5391 17.6338 24.9961 17.9502C25.4531 18.2666 25.8105 18.627 26.0684 19.0312C26.332 19.4355 26.4639 19.8457 26.4639 20.2617C26.4639 20.5254 26.4199 20.7568 26.332 20.9561C26.2441 21.1494 26.124 21.3135 25.9717 21.4482C25.8193 21.5771 25.6436 21.6738 25.4443 21.7383C25.2451 21.8027 25.0312 21.835 24.8027 21.835C24.6211 21.835 24.46 21.8086 24.3193 21.7559C24.1846 21.7031 24.0645 21.6357 23.959 21.5537C23.8535 21.4717 23.7568 21.3779 23.6689 21.2725C23.5869 21.1611 23.5078 21.0498 23.4316 20.9385C23.332 20.7979 23.2266 20.6572 23.1152 20.5166C23.0039 20.376 22.8633 20.25 22.6934 20.1387C22.5293 20.0215 22.3271 19.9277 22.0869 19.8574C21.8525 19.7871 21.5654 19.752 21.2256 19.752C20.8857 19.752 20.54 19.8164 20.1885 19.9453C19.8428 20.0742 19.5264 20.2969 19.2393 20.6133C18.958 20.9297 18.7266 21.3545 18.5449 21.8877C18.3691 22.415 18.2812 23.0771 18.2812 23.874C18.2812 24.4248 18.3457 24.9229 18.4746 25.3682C18.6035 25.8135 18.791 26.1943 19.0371 26.5107C19.2832 26.8213 19.5879 27.0615 19.9512 27.2314C20.3145 27.4014 20.7305 27.4863 21.1992 27.4863C21.5098 27.4863 21.7793 27.4482 22.0078 27.3721C22.2363 27.2959 22.4326 27.1992 22.5967 27.082C22.7666 26.959 22.9102 26.8242 23.0273 26.6777C23.1504 26.5312 23.2646 26.3848 23.3701 26.2383C23.4639 26.1035 23.5576 25.9746 23.6514 25.8516C23.751 25.7285 23.8623 25.6201 23.9854 25.5264C24.1084 25.4268 24.249 25.3477 24.4072 25.2891C24.5654 25.2305 24.75 25.2012 24.9609 25.2012C25.1895 25.2012 25.3975 25.2422 25.585 25.3242C25.7725 25.4004 25.9336 25.5059 26.0684 25.6406C26.2031 25.7695 26.3057 25.9189 26.376 26.0889C26.4521 26.2588 26.4902 26.4346 26.4902 26.6162C26.4902 26.874 26.4404 27.1465 26.3408 27.4336C26.2471 27.7207 26.1006 28.002 25.9014 28.2773C25.7021 28.5527 25.4531 28.8164 25.1543 29.0684C24.8555 29.3145 24.5068 29.5312 24.1084 29.7188C23.71 29.9062 23.2588 30.0557 22.7549 30.167C22.251 30.2783 21.6973 30.334 21.0938 30.334C20.0098 30.334 19.0664 30.1729 18.2637 29.8506C17.4668 29.5283 16.8047 29.0801 16.2773 28.5059C15.75 27.9316 15.3574 27.249 15.0996 26.458C14.8418 25.667 14.7129 24.8057 14.7129 23.874ZM28.4678 13.9424C28.4678 13.6553 28.5088 13.4004 28.5908 13.1777C28.6729 12.9551 28.79 12.7705 28.9424 12.624C29.0947 12.4775 29.2764 12.3662 29.4873 12.29C29.7041 12.2139 29.9443 12.1758 30.208 12.1758C30.7354 12.1758 31.1572 12.3252 31.4736 12.624C31.7959 12.9229 31.957 13.3623 31.957 13.9424V21.9756L35.833 17.6162C36.0088 17.4287 36.208 17.2705 36.4307 17.1416C36.6592 17.0068 36.9053 16.9395 37.1689 16.9395C37.3682 16.9395 37.5645 16.9805 37.7578 17.0625C37.957 17.1445 38.1357 17.2588 38.2939 17.4053C38.4521 17.5459 38.5781 17.7158 38.6719 17.915C38.7715 18.1084 38.8213 18.3164 38.8213 18.5391C38.8213 18.6973 38.8066 18.832 38.7773 18.9434C38.7539 19.0488 38.7188 19.1455 38.6719 19.2334C38.625 19.3154 38.5693 19.3945 38.5049 19.4707C38.4404 19.541 38.3701 19.6172 38.2939 19.6992L35.71 22.4414L39.3398 27.3633C39.4043 27.4453 39.4805 27.583 39.5684 27.7764C39.6562 27.9697 39.7002 28.2129 39.7002 28.5059C39.7002 28.7285 39.6562 28.9453 39.5684 29.1562C39.4863 29.3613 39.3721 29.543 39.2256 29.7012C39.0791 29.8594 38.9033 29.9854 38.6982 30.0791C38.499 30.1729 38.2822 30.2197 38.0479 30.2197C37.8369 30.2197 37.6465 30.1934 37.4766 30.1406C37.3125 30.0938 37.166 30.0322 37.0371 29.9561C36.9141 29.874 36.8057 29.7861 36.7119 29.6924C36.6182 29.5928 36.5391 29.4961 36.4746 29.4023L33.1787 24.6826L31.957 26.0361V28.4619C31.957 29.0361 31.7959 29.4727 31.4736 29.7715C31.1572 30.0703 30.7354 30.2197 30.208 30.2197C29.9443 30.2197 29.7041 30.1816 29.4873 30.1055C29.2764 30.0293 29.0947 29.918 28.9424 29.7715C28.79 29.625 28.6729 29.4434 28.5908 29.2266C28.5088 29.0039 28.4678 28.749 28.4678 28.4619V13.9424ZM50.2646 22.2656C50.2178 21.8555 50.1094 21.4775 49.9395 21.1318C49.7754 20.7861 49.5645 20.4873 49.3066 20.2354C49.0547 19.9834 48.7617 19.7871 48.4277 19.6465C48.0996 19.5 47.7422 19.4268 47.3555 19.4268C46.9277 19.4268 46.541 19.4941 46.1953 19.6289C45.8496 19.7637 45.5479 19.9541 45.29 20.2002C45.0322 20.4463 44.8125 20.7451 44.6309 21.0967C44.4551 21.4424 44.3203 21.832 44.2266 22.2656H50.2646ZM44.2266 24.498C44.2441 24.9492 44.3291 25.3623 44.4814 25.7373C44.6338 26.1123 44.8447 26.4375 45.1143 26.7129C45.3896 26.9824 45.7178 27.1934 46.0986 27.3457C46.4854 27.498 46.9219 27.5742 47.4082 27.5742C47.8418 27.5742 48.208 27.5303 48.5068 27.4424C48.8057 27.3545 49.0635 27.2461 49.2803 27.1172C49.5029 26.9883 49.6934 26.8477 49.8516 26.6953C50.0098 26.543 50.165 26.4023 50.3174 26.2734C50.4697 26.1445 50.6279 26.0361 50.792 25.9482C50.9561 25.8604 51.1553 25.8164 51.3896 25.8164C51.6006 25.8164 51.791 25.8574 51.9609 25.9395C52.1367 26.0215 52.2861 26.1299 52.4092 26.2646C52.5322 26.3936 52.6289 26.543 52.6992 26.7129C52.7695 26.877 52.8047 27.041 52.8047 27.2051C52.8047 27.5625 52.7197 27.8906 52.5498 28.1895C52.3799 28.4824 52.1514 28.7461 51.8643 28.9805C51.583 29.2148 51.2549 29.4199 50.8799 29.5957C50.5107 29.7656 50.127 29.9062 49.7285 30.0176C49.3301 30.1348 48.9287 30.2197 48.5244 30.2725C48.126 30.3311 47.7539 30.3604 47.4082 30.3604C46.6055 30.3604 45.8848 30.2725 45.2461 30.0967C44.6074 29.9209 44.042 29.6807 43.5498 29.376C43.0635 29.0654 42.6445 28.7021 42.293 28.2861C41.9414 27.8701 41.6543 27.4248 41.4316 26.9502C41.209 26.4697 41.0449 25.9688 40.9395 25.4473C40.834 24.9258 40.7812 24.4043 40.7812 23.8828C40.7812 22.8457 40.9277 21.8994 41.2207 21.0439C41.5195 20.1885 41.9473 19.459 42.5039 18.8555C43.0605 18.2461 43.7402 17.7744 44.543 17.4404C45.3516 17.1064 46.2656 16.9395 47.2852 16.9395C47.9473 16.9395 48.5596 17.0156 49.1221 17.168C49.6904 17.3203 50.2031 17.5312 50.6602 17.8008C51.123 18.0703 51.5332 18.3896 51.8906 18.7588C52.248 19.1279 52.5469 19.5293 52.7871 19.9629C53.0273 20.3965 53.209 20.8535 53.332 21.334C53.4551 21.8145 53.5166 22.2979 53.5166 22.7842C53.5166 23.0889 53.4902 23.3496 53.4375 23.5664C53.3906 23.7832 53.3086 23.9619 53.1914 24.1025C53.0801 24.2373 52.9248 24.3369 52.7256 24.4014C52.5322 24.4658 52.292 24.498 52.0049 24.498H44.2266ZM56.2412 19.5234H55.6436C55.1514 19.5234 54.7969 19.4297 54.5801 19.2422C54.3633 19.0488 54.2549 18.7588 54.2549 18.3721C54.2549 17.9854 54.3633 17.6982 54.5801 17.5107C54.7969 17.3174 55.1514 17.2207 55.6436 17.2207H56.2412V15.0234C56.2412 14.4551 56.3994 14.0244 56.7158 13.7314C57.0381 13.4326 57.4629 13.2832 57.9902 13.2832C58.5117 13.2832 58.9307 13.4326 59.2471 13.7314C59.5693 14.0244 59.7305 14.4551 59.7305 15.0234V17.2207H60.7852C61.3008 17.2207 61.6904 17.3086 61.9541 17.4844C62.2236 17.6543 62.3584 17.9502 62.3584 18.3721C62.3584 18.7939 62.2236 19.0928 61.9541 19.2686C61.6904 19.4385 61.3008 19.5234 60.7852 19.5234H59.7305V26.6865C59.7305 27.2256 60.0352 27.4951 60.6445 27.4951H61.1455C61.5322 27.4951 61.8311 27.5977 62.042 27.8027C62.2529 28.0078 62.3584 28.2979 62.3584 28.6729C62.3584 29.1768 62.1475 29.5605 61.7256 29.8242C61.3037 30.0879 60.6709 30.2197 59.8271 30.2197C59.1943 30.2197 58.6494 30.1553 58.1924 30.0264C57.7412 29.8975 57.3691 29.7041 57.0762 29.4463C56.7891 29.1826 56.5781 28.8574 56.4434 28.4707C56.3086 28.084 56.2412 27.6328 56.2412 27.1172V19.5234Z" fill="white"/>
<path d="M71.5195 30.3008C70.8997 30.3008 70.2799 30.1914 69.6602 29.9727C69.0586 29.7539 68.4753 29.4349 67.9102 29.0156C67.3451 28.5781 66.8529 28.0039 66.4336 27.293C66.0143 26.582 65.7865 25.7344 65.75 24.75V18.9258C65.75 18.4154 65.9323 17.9961 66.2969 17.668C66.6797 17.3216 67.1263 17.1484 67.6367 17.1484C68.7305 17.2396 69.3229 17.832 69.4141 18.9258V24.5312C69.4323 24.9688 69.5234 25.3424 69.6875 25.6523C69.8516 25.944 70.0339 26.181 70.2344 26.3633C70.4349 26.5273 70.6354 26.6549 70.8359 26.7461C71.0547 26.819 71.2734 26.8555 71.4922 26.8555C71.7109 26.8555 71.9297 26.819 72.1484 26.7461C72.3672 26.6549 72.5768 26.5273 72.7773 26.3633C72.9779 26.181 73.1602 25.944 73.3242 25.6523C73.4883 25.3424 73.5703 24.9688 73.5703 24.5312V18.9258C73.5703 18.4154 73.7526 17.9961 74.1172 17.668C74.5 17.3216 74.9466 17.1484 75.457 17.1484C76.5508 17.2396 77.1523 17.832 77.2617 18.9258V24.5312C77.2799 24.9688 77.3711 25.3333 77.5352 25.625C77.6992 25.9349 77.8815 26.181 78.082 26.3633C78.2826 26.5273 78.4831 26.6549 78.6836 26.7461C78.9023 26.819 79.1211 26.8555 79.3398 26.8555C79.5586 26.8555 79.7773 26.819 79.9961 26.7461C80.2148 26.6549 80.4245 26.5273 80.625 26.3633C80.8255 26.181 81.0078 25.944 81.1719 25.6523C81.3359 25.3424 81.418 24.9688 81.418 24.5312V18.9258C81.418 18.4154 81.6003 17.9961 81.9648 17.668C82.3477 17.3216 82.7943 17.1484 83.3047 17.1484C84.3984 17.2396 85 17.832 85.1094 18.9258V24.75C85.1094 25.7344 84.8906 26.582 84.4531 27.293C84.0339 28.0039 83.5417 28.5781 82.9766 29.0156C82.4297 29.4349 81.8464 29.7539 81.2266 29.9727C80.625 30.1914 80.0052 30.3008 79.3672 30.3008C78.7474 30.3008 78.1276 30.1914 77.5078 29.9727C76.9062 29.7539 76.3229 29.4258 75.7578 28.9883C75.6484 28.9154 75.5482 28.8333 75.457 28.7422C75.3477 28.8333 75.2474 28.9154 75.1562 28.9883C74.5911 29.4258 73.9987 29.7539 73.3789 29.9727C72.7773 30.1914 72.1576 30.3008 71.5195 30.3008ZM90.6055 17.2578C91.0977 17.276 91.5169 17.4583 91.8633 17.8047C92.2096 18.1328 92.3919 18.543 92.4102 19.0352V28.4961C92.3008 29.5898 91.6992 30.1823 90.6055 30.2734C90.0951 30.2734 89.6484 30.1094 89.2656 29.7812C88.901 29.4349 88.7188 29.0065 88.7188 28.4961V19.0352C88.737 18.5247 88.9284 18.1055 89.293 17.7773C89.6576 17.431 90.0951 17.2578 90.6055 17.2578ZM88.3086 13.7031C88.3086 13.1927 88.5273 12.7552 88.9648 12.3906C89.4023 12.026 89.931 11.8438 90.5508 11.8438C91.1706 11.8438 91.6992 12.026 92.1367 12.3906C92.5742 12.7552 92.793 13.1927 92.793 13.7031C92.793 14.2318 92.5742 14.6784 92.1367 15.043C91.6992 15.4076 91.1706 15.5898 90.5508 15.5898C89.931 15.5898 89.4023 15.4076 88.9648 15.043C88.5273 14.6784 88.3086 14.2318 88.3086 13.7031ZM113.109 19.1172C113.109 19.5729 112.927 19.9557 112.562 20.2656C112.216 20.5573 111.788 20.7031 111.277 20.7031H99.7109C99.474 20.7031 99.2826 20.7487 99.1367 20.8398C98.9909 20.931 98.8815 21.0312 98.8086 21.1406C98.7357 21.2318 98.6992 21.3138 98.6992 21.3867C98.6992 21.4779 98.7357 21.5781 98.8086 21.6875C98.8815 21.7786 98.9909 21.8698 99.1367 21.9609C99.2826 22.0339 99.474 22.0794 99.7109 22.0977H108.652C109.801 22.1159 110.749 22.3438 111.496 22.7812C112.243 23.2005 112.772 23.7018 113.082 24.2852C113.41 24.8503 113.574 25.4245 113.574 26.0078C113.574 26.5729 113.41 27.1471 113.082 27.7305C112.754 28.2956 112.216 28.7969 111.469 29.2344C110.74 29.6536 109.801 29.8633 108.652 29.8633C108.452 29.8815 108.306 29.8906 108.215 29.8906H97.6055C97.0951 29.8906 96.6576 29.7448 96.293 29.4531C95.9466 29.1432 95.7734 28.7695 95.7734 28.332C95.7734 27.8763 95.9557 27.4935 96.3203 27.1836C96.6667 26.8919 97.0951 26.7461 97.6055 26.7461H108.871C109.145 26.7643 109.363 26.7279 109.527 26.6367C109.71 26.5456 109.846 26.4453 109.938 26.3359C110.029 26.2266 110.074 26.1172 110.074 26.0078C110.074 25.9531 110.029 25.862 109.938 25.7344C109.846 25.5885 109.71 25.4792 109.527 25.4062C109.363 25.3151 109.145 25.2604 108.871 25.2422H99.9023C98.8451 25.224 97.9701 25.0052 97.2773 24.5859C96.5846 24.1484 96.0924 23.6471 95.8008 23.082C95.5091 22.5169 95.3633 21.9518 95.3633 21.3867C95.3633 20.8216 95.5091 20.2656 95.8008 19.7188C96.1107 19.1536 96.6029 18.6706 97.2773 18.2695C97.9701 17.8503 98.8451 17.6224 99.9023 17.5859C100.085 17.5677 100.221 17.5586 100.312 17.5586H111.277C111.788 17.5586 112.216 17.7135 112.562 18.0234C112.927 18.3151 113.109 18.6797 113.109 19.1172ZM122.215 29.9453C120.611 29.8906 119.398 29.5169 118.578 28.8242C117.758 28.1133 117.165 27.3203 116.801 26.4453C116.436 25.5521 116.254 24.6497 116.254 23.7383C116.254 22.7904 116.427 21.8789 116.773 21.0039C117.138 20.1107 117.73 19.3177 118.551 18.625C119.389 17.9141 120.447 17.5495 121.723 17.5312H132.113C132.624 17.5312 133.052 17.7044 133.398 18.0508C133.763 18.3789 133.945 18.7799 133.945 19.2539C133.945 19.7461 133.763 20.1654 133.398 20.5117C133.052 20.8398 132.624 21.0039 132.113 21.0039H121.887C121.486 21.0039 121.13 21.1406 120.82 21.4141C120.529 21.6875 120.31 22.043 120.164 22.4805C120.036 22.918 119.973 23.3464 119.973 23.7656C119.973 24.2214 120.036 24.668 120.164 25.1055C120.31 25.543 120.529 25.8984 120.82 26.1719C121.13 26.4271 121.486 26.5638 121.887 26.582H132.113C132.624 26.582 133.052 26.7461 133.398 27.0742C133.763 27.4023 133.945 27.7943 133.945 28.25C133.945 28.724 133.763 29.125 133.398 29.4531C133.052 29.7812 132.624 29.9453 132.113 29.9453H122.215ZM133.617 23.6836C133.617 24.0299 133.462 24.3307 133.152 24.5859C132.879 24.8229 132.533 24.9414 132.113 24.9414H123.172C122.753 24.9414 122.397 24.8229 122.105 24.5859C121.814 24.3307 121.668 24.0299 121.668 23.6836C121.668 23.3555 121.814 23.0638 122.105 22.8086C122.397 22.5716 122.753 22.4531 123.172 22.4531H132.113C132.533 22.4531 132.888 22.5807 133.18 22.8359C133.471 23.0729 133.617 23.3555 133.617 23.6836Z" fill="#FF7300"/>
</svg>
